/* XPM */
static char *cbd3c1b7d62d459cf488149d832553f1VkPA5VlJa7x38ht2[] = {
/* columns rows colors chars-per-pixel */
"64 64 199 2 ",
"   c #18171D",
".  c #1A191C",
"X  c #26211F",
"o  c #1E1C22",
"O  c #2C232F",
"+  c #382D21",
"@  c #3C3324",
"#  c #373426",
"$  c #36293A",
"%  c #3D3C35",
"&  c #4A3925",
"*  c #403C2A",
"=  c #503E25",
"-  c #4D492E",
";  c #564126",
":  c #594427",
">  c #534F30",
",  c #575231",
"<  c #7F5B3C",
"1  c #6F5332",
"2  c #7C763F",
"3  c #482F4E",
"4  c #4F3354",
"5  c #563856",
"6  c #474644",
"7  c #716D41",
"8  c #644166",
"9  c #744877",
"0  c #916931",
"q  c #9E7232",
"w  c #8E614C",
"e  c #AA7748",
"r  c #895D65",
"t  c #9B5F7F",
"y  c #BD8839",
"u  c #B98538",
"i  c #C48B38",
"p  c #C58B37",
"a  c #DB9A3C",
"s  c #D3953A",
"d  c #ECA63E",
"f  c #878042",
"g  c #948D46",
"h  c #B4AB51",
"j  c #BEB354",
"k  c #B4A44D",
"l  c #C1B755",
"z  c #C7BC57",
"x  c #F9AF40",
"c  c #EDB145",
"v  c #FCB141",
"b  c #FBB946",
"n  c #FBBE4A",
"m  c #D6CC5E",
"M  c #FBC34C",
"N  c #FADC5D",
"B  c #FAD259",
"V  c #FACD53",
"C  c #E9DD64",
"Z  c #E7DC61",
"A  c #F8E664",
"S  c #F8EB69",
"D  c #F5E768",
"F  c #F8ED72",
"G  c #F9E979",
"H  c #D5CC70",
"J  c #834E85",
"K  c #995A9B",
"L  c #8A568A",
"P  c #AE5FB2",
"I  c #B265B6",
"U  c #B76BB7",
"Y  c #C06FBD",
"T  c #BB65C0",
"R  c #D26CDC",
"E  c #C971CB",
"W  c #D56EE3",
"Q  c #DB6FED",
"!  c #DC70E9",
"~  c #CE7EF2",
"^  c #DF72F3",
"/  c #E97DEC",
"(  c #E475EB",
")  c #E375F2",
"_  c #EB75FF",
"`  c #EE79FE",
"'  c #E879F4",
"]  c #F077FF",
"[  c #F37CFD",
"{  c #F97EFE",
"}  c #F9EF80",
"|  c #FAF08F",
" . c #F9F082",
".. c #FAF190",
"X. c #FAEFA7",
"o. c #E8E3A5",
"O. c #DD82D9",
"+. c #CF86EF",
"@. c #CF89EE",
"#. c #D184EE",
"$. c #D48BEC",
"%. c #D58CEA",
"&. c #CF84F2",
"*. c #D383F2",
"=. c #D58AF5",
"-. c #DC8BF2",
";. c #DC8AF6",
":. c #DE93F3",
">. c #E483E4",
",. c #EB84ED",
"<. c #E587E9",
"1. c #F08BEB",
"2. c #FE9FEF",
"3. c #E48BF3",
"4. c #EA8CF4",
"5. c #E784F7",
"6. c #F285F4",
"7. c #F48DF5",
"8. c #FC8DF7",
"9. c #F682FB",
"0. c #FA85FB",
"q. c #F68AFB",
"w. c #FC8AF9",
"e. c #E393F6",
"r. c #EA93F4",
"t. c #E59AF6",
"y. c #E99CF5",
"u. c #E493F9",
"i. c #EA95F9",
"p. c #EE9AFA",
"a. c #F292F3",
"s. c #FE95F6",
"d. c #FE9EF1",
"f. c #FE98F4",
"g. c #FE98F5",
"h. c #FE9AF4",
"j. c #FE9AF3",
"k. c #FE90F8",
"l. c #FE91F9",
"z. c #FE92F8",
"x. c #FD90F8",
"c. c #FE94F8",
"v. c #FE95F8",
"b. c #FE96F8",
"n. c #F494F9",
"m. c #FEAFE7",
"M. c #FEA3EF",
"N. c #FEA2EE",
"B. c #FEA7ED",
"V. c #FEA5EE",
"C. c #FEA4EE",
"Z. c #FEABEA",
"A. c #FEAAEB",
"S. c #FEAAEA",
"D. c #FEADE9",
"F. c #FEAFE8",
"G. c #FEAEE9",
"H. c #FEAFE9",
"J. c #FEAEE8",
"K. c #FEADEA",
"L. c #FEA8EC",
"P. c #FEAAEC",
"I. c #FEABEA",
"U. c #FEB0E7",
"Y. c #FEB1E7",
"T. c #FEB2E7",
"R. c #FEB3E7",
"E. c #FEB1E7",
"W. c #FEB0E8",
"Q. c #FEB1E8",
"!. c #FEB0E9",
"~. c #FEB2E8",
"^. c #FEB0E8",
"/. c #EFA3F7",
"(. c #EFA6F5",
"). c #EFA4F7",
"_. c #EFA6F6",
"`. c #EBA4F5",
"'. c #EFA9F5",
"]. c #EEA4F8",
"[. c #F2A4F5",
"{. c #FEA1F1",
"}. c #FEA2F0",
"|. c #FEA1F0",
" X c #F2A9F4",
".X c #FAA8FE",
"XX c #F8A5FE",
"oX c #FEBDF6",
"OX c #EEEBCB",
"+X c #FCF8C8",
"@X c #FAF7D6",
"#X c #FEC4F1",
"$X c #ECECEC",
"%X c #F0EFEB",
"&X c #FEFCE4",
"*X c #FDFDEC",
"=X c #FDFDF4",
"-X c #FFFFFB",
";X c gray94",
/* pixels */
"Q.T.T.T.T.T.T.T.T.T.T.T.T.T.T.T.T.T.T.T.T.T.T.T.T.Q.Q.Q.T.T.Q.Q.Q.T.T.T.T.Q.Q.Q.Q.Q.Q.Q.Q.Q.Q.Q.Q.T.T.T.T.T.T.T.T.Q.Q.Q.Q.Q.Q.Q.",
"T.T.T.T.T.T.T.T.Q.Q.Q.Q.Q.Q.Q.T.T.T.T.T.T.T.T.T.T.T.T.T.T.T.T.T.T.T.T.T.T.Q.Q.Q.T.T.T.T.T.Q.Q.Q.Q.T.T.T.T.T.T.T.Q.Q.Q.Q.Q.Q.Q.Q.",
"T.T.T.Q.Q.Q.Q.Q.Q.Q.Q.Q.Q.Q.Q.Q.Q.Q.Q.Q.T.T.T.T.T.T.T.T.T.T.T.T.T.T.T.T.T.Q.Q.Q.T.T.T.T.T.Q.Q.Q.Q.T.T.T.T.T.T.T.Q.Q.Q.Q.Q.F.F.Q.",
"Q.Q.Q.Q.Q.Q.Q.Q.Q.Q.Q.Q.Q.Q.Q.Q.Q.Q.Q.Q.Q.Q.T.T.T.T.T.T.T.T.T.T.T.T.T.T.T.Q.Q.Q.T.T.m.F.F.F.F.F.F.m.T.T.T.T.T.T.Q.Q.Q.Q.F.F.Q.F.",
"Q.Q.Q.Q.Q.Q.Q.Q.Q.Q.Q.Q.Q.Q.Q.Q.Q.Q.Q.Q.Q.Q.Q.Q.Q.T.T.T.m.F.F.Q.Q.Q.Q.F.F.F.F.F.F.F.F.F.F.F.F.F.F.F.F.F.m.m.m.F.F.F.F.F.F.F.F.F.",
"Q.F.Q.Q.F.Q.F.F.Q.Q.Q.Q.Q.Q.Q.Q.Q.Q.Q.Q.Q.Q.F.F.F.F.F.F.F.F.F.F.F.F.F.F.F.F.F.F.F.F.F.F.F.F.F.F.F.F.F.F.F.F.F.F.F.F.F.F.F.F.F.F.",
"F.F.F.F.F.F.F.F.F.F.F.F.F.F.F.F.F.F.F.F.F.F.F.F.F.F.A.F.F.A.F.F.F.F.A.A.A.F.F.F.A.F.F.F.F.A.A.A.B.A.P.'.'.P.A.A.F.A.A.A.F.F.F.F.",
"A.A.A.F.F.F.A.A.A.A.A.A.A.A.A.A.A.A.A.A.A.A.A.L.L.L.L.L.L.L.L.L.L.L.L.B.L.L.B.'.).(.A.A.A.B.B.B.$.`. X'.'. X XL.L.L.L.B.B.B.B.B.",
"A.L.B.L.L.B.B.L.B.B.B.B.B.B.B.B.B.B.B.B.B.B.B.B.B.N.N.N.N.N.N.N.N.N.N.[.[.).).).).).). X).y.@.@.%.y.).).).).).).[.N.N.N.N.N.{.{.",
"B.B.B.B.B.B.N.N.N.N.N.N.{.{.{.{.{.{.N.{.{.{.{.d.d.d.d.d.d.d.{.d.d.d.d.].).).).).).).).).%.$.@.+.+.$.y.). X). Xt.$.d.d.d.d.d.d.d.",
"N.N.N.{.{.{.{.{.{.{.{.{.d.d.d.d.d.d.{.{.{.d.d.d.j.j.j.j.j.d.j.j.j.[././.)././././.].y.y.#.+.&.&.+.+.e.y.y.y.y.:.*.-.r.j.j.j.f.f.",
"d.d.d.d.d.d.d.d.d.d.d.d.j.j.j.j.j.d.d.d.d.d.j.j.j.j.f.a.a.t.t.t.t.t.t.t.t.t.t.t.t.t.&.&.&.&.&.&.&.&.&.&.*.*.*.&.&.&.&.*.4.s.s.s.",
"j.j.j.j.j.j.j.j.j.j.j.oXj.f.f.f.j.j.d.d.j.j.j.j.j.f.3.*.=.=.=.=.=.=.=.=.=.=.=.=.=.=.&.&.&.&.&.+.&.&.&.&.&.&.&.&.&.&.&.&.*.s.c.c.",
"f.j.j.f.j.j.j.j.j.j.j.j.f.f.f.f.f.j.j.j.j.j.j.j.j.3.*.*.*.*.*.*.*.*.*.*.*.*.*.*.*.*.*.*.*.#.*.*.*.*.*.#.*.*.*.*.*.*.*.*.*.a.c.c.",
"s.s.s.s.f.f.f.f.f.f.f.f.f.s.s.s.s.f.j.j.f.j.j.f.s.s.s.s.f.j.j.j.j.j.j.j.j.j.j.j.j.j.j.j.j.j.j.j.j.j.j.j.s.s.s.s.s.s.s.s.c.c.c.c.",
"s.s.s.s.s.s.s.s.s.s.s.s.s.s.s.s.s.s.s.f.f.s.s.s.s.s.s.s.s.s.f.f.f.f.f.f.s.s.s.s.s.s.s.s.f.f.j.j.j.f.s.s.s.s.s.s.c.s.c.c.c.c.c.8.",
"c.s.s.s.s.s.s.s.s.s.s.s.s.s.c.c.s.s.s.s.s.s.s.s.s.s.s.s.s.s.s.f.s.s.s.s.s.s.s.s.s.s.s.c.s.s.s.s.s.s.s.s.s.c.c.k.k.8.k.c.8.8.8.8.",
"k.k.k.c.c.c.c.c.k.k.k.k.k.8.8.8.8.k.k.k.k.k.k.k.c.c.c.c.c.c.c.c.c.s.s.c.c.c.c.c.k.k.k.k.k.k.k.k.c.c.k.k.k.k.k.8.8.8.8.8.8.w.w.w.",
"8.8.8.8.k.k.k.8.8.8.8.8.8.8.8.8.w.8.8.8.8.8.8.k.k.k.k.k.k.k.>.O.O.1.k.k.k.k.k.k.k.8.8.8.8.8.8.8.k.k.k.k.k.8.8.8.w.w.w.w.w.w.w.w.",
"w.8.8.8.8.8.w.w.8.8.8.w.w.w.w.0.w.w.w.w.w.8.8.8.8.8.8.8.8.7.$ z # L 8.8.8.8.8.8.8.8.w.w.w.w.8.8.8.8.8.8.8.8.w.w.0.0.w.w.w.w.0.0.",
"w.w.w.w.w.w.w.w.0.0.w.0.0.0.0.0.0.0.0.0.w.w.w.w.w.w.w.w.8.Y O Z * 8 w.w.w.w.w.w.w.w.w.w.w.w.w.w.w.w.w.w.w.w.w.w.0.w.0.0.0.0.0.0.",
"0.0.0.0.0.0.0.0.0.0.w.w.0.0.0.0.0.0.0.0.0.w.w.w.w.w.w.w.w.# j @XH g >.w.w.w.w.w.w.w.w.w.w.w.0.0.w.w.w.w.w.w.0.0.0.0.0.0.0.0.0.0.",
"0.0.0.0.0.0.0.0.0.0.0.0.0.0.0.0.0.0.0.0.0.0.w.w.w.w.w.6.U % o.=X} h K E w.w.w.0.0.0.0.0.0.0.0.0.0.0.0.0.0.0.0.0.0.0.0.0.0.0.9.0.",
"0.0.0.0.0.0.0.0.0.0.0.0.0.0.0.0.0.0.0.0.0.0.0.0.0.0.0.,.. 6 $X*X} h . 4 0.0.0.0.0.0.0.0.0.0.0.0.0.0.0.0.0.0.9.9.9.9.9.9.9.9.9.9.",
"0.0.0.0.0.0.9.9.9.9.9.9.9.9.9.0.0.0.0.0.0.0.0.0.0.0.0./ . +X-XS S S , $ / 0.9.9.9.9.9.9.9.{ { 9.{ 9.9.9.9.{ { 9.9.9.9.9.9.9.9.9.",
"9.9.9.9.9.9.9.9.{ { { { { { { 9.9.9.9.9.9.9.9.9.9.9.9./ . -X-XS S S , . E 9.9.9.9.9.9.9.{ { { { 9.{ { { 9.9.{ .X{ { { { { { { { ",
"{ { { { { { { { { [ [ { { { { { { { .X{ { { { { { ( . > D &XG S S S D m . . . { { { { { { { { { { { { { { { { { { { [ [ [ [ [ { ",
"[ [ [ [ [ [ [ [ [ [ [ [ [ [ [ [ [ [ J   .         . l S S &XF S S S S S 2   .           ( [ { [ { { [ [ [ [ [ [ [ [ [ [ [ [ [ [ ",
"[ [ [ [ [ [ [ [ [ [ [ [ [ [ [ [ [ ( o @ a C C C OX;X=X=X=XS S S S S S S D C %XC C C c d 1 R [ [ [ [ [ ` ` ` ` ` ` ` ` ` ` ` ` ] ",
"` ` ` ` ` ` ` ` ` ` ` ` ` ` [ [ [ ) e a x G +XS S S S S S S S S S S S S S S S &X&XX.b y 3 W [ [ ` ` ` _ _ _ _ _ _ _ ` _ ` ` ` ` ",
"` ` _ _ _ _ _ _ _ _ _ _ ` ` ` ` [ [ J & d n D S S S S S S S S S S S S S S S S F F B v y W ` ` ` ` _ _ _ _ _ _ _ _ _ ` _ _ ` ` ` ",
"_ _ _ _ _ _ _ _ _ _ _ _ _ ` ` ] [ [ ! T < v M S S S S S S S S S S S S S S S S A V n 0 r _ ` ` ` _ _ _ _ _ _ _ _ _ _ _ _ ` ` ` ` ",
"` _ _ _ _ _ _ _ _ _ _ _ _ _ ` ` ` ` ` ` _ ; a S S S S S S S S S S S S S S S b v v q Q _ _ _ _ _ _ _ _ _ _ _ _ _ _ _ ` ` ` ` [ [ ",
"` ` ` ` _ _ _ _ _ _ _ _ _ _ _ _ ` ` ` _ _ P w V A S S S S S S S S S S S S S v d q t _ _ _ _ _ _ _ _ _ _ _ _ _ _ _ ` ` ` [ [ [ [ ",
"] ` ` ` ` ` _ _ _ _ _ _ _ _ _ _ ` _ _ _ _ _ _ + z S S S S S S S S S S S S S @ 5 W _ _ _ _ _ _ _ _ _ _ _ _ _ _ _ _ ` ` ` [ [ [ [ ",
"[ ` ` ` ` ` _ _ _ _ _ _ _ _ _ _ ` ` _ _ ` ` `   - f S S S S S S S S S S S S y 4 ^ _ _ _ _ _ _ _ _ _ _ _ _ _ _ _ ` ` [ [ [ [ [ [ ",
"[ ] ] ] ] [ ` ` _ _ _ _ ` ` ` ` ` ` ` _ ` ` ` . # 7 F S S S S S S S S S S S v 4 ) _ _ _ _ _ ` _ ` _ _ _ _ _ _ ` ` [ [ [ [ [ [ { ",
"[ [ [ [ [ [ ] ` ` ` ` ` ` ` ` ` ` ` ` ` [ [ [ . l ..| S S S S S S S S S S S v 4 ) ` ` ` ` ` ` ` ` ` ` ` ` ` ` ` [ [ [ [ [ [ { { ",
"{ { [ [ [ XX[ [ [ [ [ [ [ [ [ [ [ [ [ [ [ [ [ . l ..| S S S S S A A S S S S v 4 ) [ [ [ [ [ [ [ [ [ [ [ [ [ [ [ [ { { { { { { { ",
"{ { { { { { { { { [ [ [ [ [ [ { [ [ { [ { { { . l ..| S S S S A b v N S S S v 4 / [ [ [ { [ [ { { { { { { { { { { 9.9.9.9.9.9.9.",
"9.9.9.9.9.9.{ { { { { { { { { { { { { { 9.9.9.. l S N N N k u X q u d v v v v ; X I 9.9.{ { { { { { { { 9.9.9.9.9.9.9.9.9.0.0.0.",
"0.0.0.0.0.0.9.9.9.9.9.9.9.9.9.9.9.9.9.9.9.9.9.. l S M v v . .   . . y v v v v a & I 9.9.9.9.9.9.9.9.9.9.9.9.0.0.0.0.0.0.0.0.0.0.",
"0.0.0.0.0.0.0.0.0.0.0.9.0.0.0.0.9.9.9.9.0.0./ ; s d i e 9 K 0.0.0./ 9 8 1 i i a & I 0.0.0.0.0.9.9.0.0.0.0.0.0.0.0.0.0.w.w.w.w.0.",
"0.0.0.0.0.w.0.0.0.0.0.q.q.p.p.q.6.9.0.0.0.6.5 v v p . 9 0.q.q.q.q.q.q.6.  .   a & I q.w.q.q.0.0.0.0.0.0.0.0.0.w.w.0.w.w.w.w.w.w.",
"0.w.0.w.w.w.w.w.w.w.q.n.p.p.p.i.;.5.5.q.q.q.<.: : r >.,.w.w.w.w.w.w.w.w.>.>.o = X I w.w.w.w.w.w.w.w.w.w.w.w.w.w.w.w.w.w.w.w.w.w.",
"w.w.w.w.w.w.w.w.w.w.3.i.p.p.p.e.*.~ ~ -.e.p.p.p.p.p.p.p.w.w.w.w.w.w.w.8.8.8.8.8.8.8.8.w.w.w.w.w.w.w.w.w.w.w.w.w.w.w.w.w.w.8.8.8.",
"w.8.8.8.8.8.8.8.7.5.*.e.y.y.y.;.*.~ ~ #.-.i.p.p.p.p.p.p.p.n.8.8.8.8.8.c.c.c.c.c.8.c.c.c.8.8.8.8.8.8.8.8.8.8.8.8.8.8.8.8.8.8.8.8.",
"k.k.k.k.c.c.a.;.*.&.&.&.*.&.&.&.&.&.&.&.&.~ ;.u.u.u.u.u.u.u.u.u.u.7.7.s.s.s.s.s.s.s.c.c.c.c.c.c.c.c.c.c.c.c.c.c.8.8.a.a.c.c.c.c.",
"c.s.s.s.f.f.r.*.*.*.*.*.*.*.*.*.*.*.*.*.*.*.*.*.*.*.*.*.*.*.*.*.*.*.*.4.s.s.s.s.s.s.s.s.s.s.s.s.s.s.s.s.s.s.s.s.s.s.s.s.s.s.s.s.",
"f.f.f.j.j.j.a.3.3.3.3.3.3.3.3.3.3.3.3.3.3.3.3.3.3.3.3.3.3.3.3.3.3.3.3.4.s.f.s.f.s.s.s.s.s.s.s.s.s.s.c.s.s.s.f.f.s.f.f.s.s.s.s.s.",
"j.j.d.d.d.d.{.{.{.d.d.d.d.d.{.d.d.j.j.f.f.s.s.s.s.s.s.s.c.c.c.c.s.s.s.s.s.s.f.f.s.s.s.s.s.s.s.s.s.s.s.s.s.s.f.j.j.j.j.s.s.s.s.s.",
"d.d.d.d.{.{.N.N.N.{.{.d.d.d.d.d.d.d.j.j.f.s.s.s.s.s.s.s.c.c.c.c.s.s.s.s.s.s.s.s.s.s.s.s.s.s.s.s.s.s.s.s.s.s.f.j.j.j.j.f.f.s.s.s.",
"d.d.{.{.N.N.N.B.B.N.{.{.d.d.d.d.{.d.d.j.j.f.s.s.s.s.s.s.s.s.s.s.s.s.s.s.s.s.s.s.s.s.s.s.s.s.s.s.s.s.s.s.s.s.j.j.d.j.j.f.f.s.s.s.",
"{.{.{.N.B.B.B.L.B.B.B.N.N.N.N.{.{.N.{.{.d.d.f.f.f.f.j.f.f.j.f.f.j.j.f.j.j.j.j.f.f.j.j.f.f.f.s.s.s.s.s.s.j.j.j.d.d.d.d.j.j.j.j.j.",
"B.B.B.B.L.L.A.A.A.A.A.B.B.B.B.B.B.B.B.B.{.{.d.d.d.d.d.d.d.d.d.d.d.d.d.d.d.d.d.d.d.d.d.d.d.d.j.j.j.j.j.j.j.d.d.{.{.d.d.d.d.d.d.d.",
"L.L.A.A.A.A.A.A.A.A.A.A.A.A.L.A.#XA.A.L.B.B.N.N.N.N.N.N.N.N.N.N.N.N.N.N.N.N.N.N.N.N.N.N.N.2.2.2.2.2.2.d.{.N.oXN.N.N.B.B.N.N.B.N.",
"A.A.A.A.F.F.F.F.F.F.F.A.F.F.F.A.A.A.A.A.A.L.L.L.B.B.L.B.L.L.L.L.L.L.L.B.B.B.B.B.B.B.L.B.B.B.B.B.B.B.B.B.B.B.B.B.B.B.B.L.L.L.L.L.",
"A.F.F.F.F.F.F.F.F.F.F.F.F.F.F.F.F.F.F.F.A.A.A.A.A.A.A.A.A.A.F.F.F.A.A.F.L.L.L.L.A.A.A.A.A.A.L.A.A.A.A.A.A.L.L.B.A.L.A.A.A.A.A.A.",
"A.F.F.F.F.F.F.F.F.F.F.F.F.F.F.F.F.F.F.F.F.F.A.F.A.F.F.F.F.F.F.F.F.F.F.F.F.F.F.A.F.F.F.F.F.A.A.A.A.A.A.A.A.A.A.L.A.L.L.A.A.A.A.A.",
"F.F.F.F.F.Q.F.F.F.F.F.F.Q.Q.Q.Q.Q.F.F.F.F.F.F.F.F.F.F.F.F.F.F.Q.F.Q.Q.Q.F.F.F.F.F.F.F.F.F.A.A.A.A.F.F.F.F.A.A.L.L.L.L.A.A.A.A.A.",
"F.F.F.F.F.Q.T.T.F.F.Q.T.T.T.T.T.T.m.F.F.F.F.F.F.F.Q.Q.Q.Q.Q.Q.Q.Q.Q.F.F.F.F.F.F.F.F.A.A.A.A.A.A.A.A.F.F.F.A.A.L.L.L.L.L.L.L.L.L.",
"F.F.F.F.Q.Q.T.T.F.F.Q.T.T.T.T.T.T.T.T.Q.Q.F.F.F.Q.Q.Q.Q.T.T.T.T.T.T.Q.F.F.F.F.F.F.F.F.F.A.A.A.A.A.F.F.F.F.A.A.L.L.L.L.L.L.L.L.L.",
"F.F.F.Q.F.Q.T.T.Q.Q.Q.T.T.T.T.T.T.Q.T.Q.Q.F.F.Q.Q.Q.Q.Q.T.T.T.T.T.T.Q.F.F.F.F.F.F.F.F.A.A.A.A.A.A.F.F.F.A.A.L.L.L.L.L.L.L.L.L.L.",
"A.F.F.F.Q.Q.Q.Q.Q.Q.Q.T.T.T.T.T.T.Q.Q.Q.F.F.F.Q.Q.Q.Q.Q.T.T.T.T.T.Q.F.F.F.F.F.F.F.A.A.A.A.L.A.A.A.A.F.F.A.A.L.L.L.L.L.L.L.L.B.B."
};
