/* XPM */
static char *result[] = {
/* columns rows colors chars-per-pixel */
"64 64 50 1 ",
"  c #552E4A",
". c #713C62",
"X c #616169",
"o c #ED76FF",
"O c #EF78FF",
"+ c #F37BFE",
"@ c #F97EFE",
"# c #B682D1",
"$ c #B980D5",
"% c #BC80D9",
"& c #C783E6",
"* c #D189E6",
"= c #D08AEC",
"- c #D88EED",
"; c #C896E4",
": c #C898E3",
"> c #CF84F3",
", c #D083F1",
"< c #DE8CF1",
"1 c #DE93F3",
"2 c #DA9EF4",
"3 c #FE9FEF",
"4 c #E48EF1",
"5 c #EB8FF3",
"6 c #FD8EF7",
"7 c #F782FC",
"8 c #FB85FC",
"9 c #FD8AFA",
"0 c #E197F5",
"q c #EC91F3",
"w c #E69DF4",
"e c #E99DF5",
"r c #F492F3",
"t c #FE95F6",
"y c #FE9BF2",
"u c #FE92F8",
"i c #FEAFE7",
"p c #FEA5EE",
"a c #FEACEA",
"s c #FEB2E7",
"d c #FEB1E8",
"f c #EEA5F6",
"g c #EFA9F5",
"h c #F2A4F5",
"j c #FEA1F1",
"k c #F2A9F4",
"l c #E0B6F2",
"z c #FEBDF6",
"x c #FFE3F7",
"c c #F5E8FC",
/* pixels */
"dsssssssdssdssssssssssssssssssdddssssdddddddddddiiddsssssidddddi",
"sssssssddddssssssssssssssssssssssssssdddsssssdidddddssdsiddddidd",
"sssdddddddddddsdddddssssssssssssssssssssdsddididisdsdddiddddddid",
"sddddddddsddddddsdddssss .............. ddddiiiiisssddiidiadddad",
"ddddddddddddddddsdddssss .............. dadadaadiaiiiiiiadaaadad",
"dddiddiddddadsddiiid.... >,xxxxxxxx,>>>.....adadaiiiaiiiadaaadia",
"iiiaaadaiaaaaaddiaii.... =,xxxxxxxx,,,=.....aadapakggkiaaaaaaaaa",
"aaaaaaaaaaaaaaaa....>>xxxxxxx,,,,,,,,#ddsd......=ffggkkaaaaajaja",
"apappapaajajappp....,,xxcxxxx,,,,,,,,&ssss......=effffffhjjjjjjj",
"ppppjpjpjjjjjj..,,lxxxxx,,,,,>,,,sssssssssssss....ffffhw-yjyjyjj",
"jppjjjyjjjjjjy..,,xxxxxx>,,,,,,,,sssssssssssss....0eeee0=<qyyyyy",
"yyjyjypyjyyjyy..,,xxxxxx,,,,,,,,,sssssssssssss....,>>>>>,,>,qtyu",
"yyyyyyyyyyyz..,,2xxxxx,,,,,,,$sssssss,,,ssssssss....,,>>>>>&,utt",
"yyytytytyyty..,,xxxxxx,,,,,,,ssssssss>,,ssssssss....,,,,>>>o,utt",
"ttttyyytt...,,xxxxxx,,,,,,,ssssss,,ssssssssssssssd.....tuuutttut",
"ttyttttyt...,,xxxxxx,,,,,,,ssssss,,ssssssssssssssd.....tuttu6u66",
"ttutttt..,,,xxxxxx,,,,,,,%dssssss,=sssssssssss..ssss.....u6u66t6",
"uuuuttt..,,,xxxxxx,,,,,&=ssssssss,,sssssssssss..ssss.....6969999",
"66u6uuu..,,,xxxx,,,,,;ssssssssssssssssssssss..,,..sssss..9898989",
"96969u9..,,,xxxx,,,,;,ssssssssssssssssssssss..,=..sssss..9989998",
"96989..>,xxxxx,,,,,,sssss......sssssssssssss..ss..sssss....88888",
"87979..>,xxxxx,,,,,,sssss......sssssssssss,s..ss..sssss....88888",
"89998..>,xxxxx,,,,,,ss.. ssss,,..sssssssssssss..ssssssssd..@8@88",
"88887..,,xxxxx,,,,,,ss.. ssss,,..sssssssssssss..ssssssssd..8888@",
"777  ss,,xxx,,,,,,,,ss.. ssss,,..sssssssssssss  sssssssss..,,777",
"777..,,xxxxx,,,,,,ssss.. ssssss..ssssssssssssssssssssssss....@@@",
"7+7..,,xxxxx,,,,,,ssss.. ssssss..ssssssssssssssssssssssss....+++",
"++O..,,xxxxx,,,,sssssssss......ssssssssssssssssssssssssss....+++",
"OOO..&,xxxxx,,,,sssssssss......ssssssssssssssssssssssssss....oOO",
"OOo..,,,,...,,xxsssssssssssssssssssssssssssssssssssssssssss..oOO",
"Ooo..,,,,...,,xxsssssssssssssssssssssssssssssssssssssssssss..oOO",
"ooo..,,..,,,..xxsssssssssssssssssssssssssssssssssssssss,,ss..oo+",
"ooo..,,..,>,..xxsssssssssssssssssssssssssssssssssssssss=,ss..+O+",
"Ooo..xx..,,,..xxsssssssssssssssssssssss ....sssssssssss>,ss..+O+",
"OoO..xx..,,,..xxsssssssssssssssssssssss ....sssssssssss>,ss..O++",
"+OO..,,,,...,,xx,,sssssssssssssssssss..s,,,,,,sssssssssssss..+++",
"+OO..,,,,...,,xx,,sssssssssssssssssss..s,,,,>>sssssssssssss..++@",
"+++..ssxxxxxxxxx,,....sssssssssssssss..sss,,>=..sssssssss....++@",
"@++..ssxxxxxxxxx,,....sssssssssssssss..sss,,=,..sssssssss....@7@",
"@@@  ..xxxxxxxxxss,,,=.ssssssssssssss.....ssdd..sssssssss..  777",
"@@@8@..xxxxxxxxx..,,xx..sssssssssssss.....ssss..sssssssss..77787",
"88888..xxxxxxxxx..,,xx...ssssssssssss.....ssss..sssssssss..78879",
"88888..dsxxxxxxx..,,,,xx,. ssssssssssss ......sssssssssss..99799",
"88898..dsxxxxxxx..>,,,xx,. ssssssssssss ......sssssssssss..95999",
"8988999..xxxxxxx,,..,,xx>. ssssssssssssssssssssssssssss..8998979",
"9999999..xxxxxxx,,..,,xx,. sssssssssssssssssssssssssdds..r999666",
"9996666..sssssxxxx,,....X,,,,sssssssssssssssssssssss.....9966666",
"uuuuuu6..sssssxxxx,>....X,,,,sssssssssssssssssssssss.....ruuruur",
"uuyuty5,,...ssssxxxxxx,,>,,,>,,,,,,ssss,,,,,,,ddss>>...utttttttt",
"ytyyyyr44...ssssxxxxxx,,,,,,,,,,>,,ssss>,,>,,,ddss,>...ttytytttt",
"yyyyypjypyjp..ss,,xxxxxxxxxxxxx,,,,,,,,,,,,,,,xx,,..tytyytytttyu",
"yyjyjypp3jjy..ss,,xxxxxxxxxxxxx,,,,,,,,,,,,,,,xx,,..ttyyyyytytyt",
"yjjjpjppppjpyy....ss,,xxxxssss xxxxxxxxxxxxx,,....ttytyyyyyyttty",
"jjjjpppppppppp....ss,,xxxxsssssxxxxxxxxxxxxx,,....tyyyyyyyyyyyyy",
"aajpapaaaapppp....ss,,xxxxsssssxxxxxxxxxxxxx,,....yyyy3ypyyyjyyj",
"ajaaaaapaaaaipaa......sds,,,,xxxxxx,,,, ........pypy33zppppppjaj",
"aaaaaaaiaaaiaaai......dds,,>sxxxxxx,,,, ........pppppppppapappap",
"aaaaidaaiaaiaiaaaiaa.........ss,,,,.........aaaaapapapappaapaaaa",
"aaddadiaiiiadaiaaaaa.........ss,,,,.........aaajaaaaaaaaapaapaaa",
"aaaiddiiiiadddddddiidadds..............sdaaaaaaaaaaaaaappapaapap",
"iidddddsiddiddsssiiiidias..............daaaaaaapaaaaaaaapapaapap",
"aaidddddidisddssssdddaiiiidissssddddiiaiaaaaaaaaaaaaaaapapappapa",
"aaaddddiddddssssdsdddiiddddisidddddaidaaaaaapaaaaaaaaaaapapapaap",
"aaaddddddiisssssdddddaidiiddsssiddddadaaaaaaaaapaaaaaappapapapap"
};
