/* XPM */
static char *c66e95975e16492ec6763072a9ade9f57Z01rTqaqt1QIj0e[] = {
/* columns rows colors chars-per-pixel */
"64 64 164 2 ",
"   c #CE7EF2",
".  c #EB75FF",
"X  c #EE79FE",
"o  c #F077FF",
"O  c #F37CFD",
"+  c #F97EFE",
"@  c #CF86EF",
"#  c #CF89EE",
"$  c #D189E6",
"%  c #D184EE",
"&  c #D48BEC",
"*  c #D88EED",
"=  c #CF84F2",
"-  c #D383F2",
";  c #D985F3",
":  c #D58AF5",
">  c #DC8BF2",
",  c #DD8CF8",
"<  c #DE93F3",
"1  c #FE9FEF",
"2  c #E184F4",
"3  c #E48BF3",
"4  c #EA8CF4",
"5  c #ED85F9",
"6  c #F38DF6",
"7  c #FC8DF7",
"8  c #F682FB",
"9  c #FA85FB",
"0  c #F68BFA",
"q  c #FC8AF9",
"w  c #E393F6",
"e  c #EA93F4",
"r  c #E59AF6",
"t  c #E99CF5",
"y  c #E493F9",
"u  c #EB95F9",
"i  c #ED9AFA",
"p  c #F292F3",
"a  c #FE95F6",
"s  c #FE9CF3",
"d  c #FE9DF2",
"f  c #FC9EF3",
"g  c #FE9EF2",
"h  c #FE9EF1",
"j  c #FE98F4",
"k  c #FE98F5",
"l  c #FE9AF4",
"z  c #FE9AF3",
"x  c #F493FA",
"c  c #FD90F8",
"v  c #FE90F8",
"b  c #FE91F8",
"n  c #FE90F9",
"m  c #FE91F9",
"M  c #FE92F8",
"N  c #FE93F8",
"B  c #FE92F9",
"V  c #FE93F9",
"C  c #FE94F8",
"Z  c #FE95F8",
"A  c #FE96F8",
"S  c #F198F9",
"D  c #FEAFE7",
"F  c #F8A5EB",
"G  c #FEA3ED",
"H  c #FEA1EF",
"J  c #FEA2EE",
"K  c #FEA3EE",
"L  c #FEA2EF",
"P  c #FEA3EF",
"I  c #FEA5EC",
"U  c #FEA5ED",
"Y  c #FEA6EC",
"T  c #FEA7EC",
"R  c #FEA6ED",
"E  c #FEA7ED",
"W  c #FEA4EE",
"Q  c #FEA5EE",
"!  c #FEA6EE",
"~  c #FEA4EE",
"^  c #FEABE9",
"/  c #FEA8EB",
"(  c #FEA9EB",
")  c #FDABEA",
"_  c #FEAAEA",
"`  c #FEABEA",
"'  c #FEAAEB",
"]  c #FEABEB",
"[  c #FEACE8",
"{  c #FEADE8",
"}  c #FEACE9",
"|  c #FEADE9",
" . c #FEAEE8",
".. c #FEAFE8",
"X. c #FEAEE9",
"o. c #FEAFE9",
"O. c #FDACEA",
"+. c #FEACEA",
"@. c #FEACEB",
"#. c #FEAEEA",
"$. c #FEAFEA",
"%. c #FBA9ED",
"&. c #F8ABEE",
"*. c #FEA8EC",
"=. c #FEA9EC",
"-. c #FEA8ED",
";. c #FEA9ED",
":. c #FEAAEC",
">. c #FEABEA",
",. c #FEB0E7",
"<. c #FEB1E7",
"1. c #FEB2E7",
"2. c #FEB3E7",
"3. c #FEB1E7",
"4. c #FEB0E8",
"5. c #FEB1E8",
"6. c #FEB0E9",
"7. c #FEB2E8",
"8. c #FEB0E8",
"9. c #EDA6F3",
"0. c #E8A1F7",
"q. c #EFA2F7",
"w. c #EFA3F7",
"e. c #EFA5F5",
"r. c #EFA6F5",
"t. c #EEA7F4",
"y. c #EDA4F7",
"u. c #EFA4F6",
"i. c #EEA5F6",
"p. c #EFA4F7",
"a. c #EEA6F6",
"s. c #EFA6F6",
"d. c #EFA6F7",
"f. c #EFA8F5",
"g. c #EFA9F5",
"h. c #EFAAF5",
"j. c #EEA2F8",
"k. c #EEA3F8",
"l. c #ECA5F8",
"z. c #EFA4F8",
"x. c #F6A3F2",
"c. c #F7A2F3",
"v. c #F1A3F5",
"b. c #F2A2F6",
"n. c #F0A6F5",
"m. c #F0A4F6",
"M. c #F0A5F7",
"N. c #FEA0F0",
"B. c #FEA1F0",
"V. c #FEA0F1",
"C. c #FEA1F1",
"Z. c #FEA2F0",
"A. c #FEA3F0",
"S. c #FEA2F1",
"D. c #FEA1F0",
"F. c #F5A9F2",
"G. c #F0A9F5",
"H. c #F0A8F6",
"J. c #F4A5FE",
"K. c #F8A5FE",
"L. c #FAA8FE",
"P. c #FEBAF7",
"I. c #FEBFF5",
"U. c #FEC4F1",
/* pixels */
"5.1.1.1.1.1.1.1.1.1.1.1.1.1.1.1.1.1.1.1.1.1.1.1.1.5.5.5.1.1.5.5.5.1.1.1.1.5.5.5.5.5.5.5.5.5...5.5.1.1.1.1.1.1.1.1.5.5.5.5.5.5.5.",
"1.1.1.1.1.1.1.1.5.5.5.5.5.5.5.1.1.1.1.1.1.1.1.1.1.1.1.1.1.1.1.1.1.1.1.1.1.5.5.5.1.1.1.1.1.5.5.5.5.1.1.1.1.1.1.1.5.5.5.5.5.5.5.5.",
"1.1.1.5.5.5.5.5.5.5.5.5.5.5.5.5.5.5.5.5.1.1.1.1.1.1.1.1.1.1.1.1.1.1.1.1.1.5.5.5.1.1.1.1.1.5.5.5.5.1.1.1.1.1.1.1.5.5.5.5.5.....5.",
"5.5.5.5.5.5.5.5.5.5.5.5.5.5.5.5.5.5.5.5.5.5.1.1.1.1.1.1.1.1.1.1.1.1.1.1.1.5.5.5.1.1.D ............D 1.1.1.1.1.1.5.5.5.5.....5...",
"5.5.5.5.5.5.5.5.5.5.5.5.5.5.5.5.5.5.5.5.5.5.5.5.5.1.1.1.D ....5.5.5.5...................................D D D ..................",
"5...5.5...5.....5.5.5.5.5.5.5.5.5.5.5.5.5.5.....................................................................................",
"....................................................] ....] ........] ] ] ......] ........] ] ] F ] &.f.f.&.] ] ..] ] ] ........",
"] ] ] ......] ] ] ] ] ] ] ] ] ] ] ] ] ] ] ] ] *.*.*.*.*.*.*.*.*.*.*.*.R *.*.R f.y.9.] ] ] R R R & 0.G.f.f.G.F.*.*.*.*.R R R R R ",
"] *.R *.*.R R *.R R R R R R R R R R R R R R R R R H H H H H H H H H H c.b.y.y.y.y.y.y.n.y.t # # $ t y.y.y.y.y.y.c.H H H H H B.B.",
"R R R R R R H H H H H H B.B.B.B.B.B.H B.B.B.B.h h h h h h h B.h h h h j.y.y.y.y.y.y.y.y.* & # @ @ & t y.n.y.n.r * h h h h h h h ",
"H H H B.B.B.B.B.B.B.B.B.h h h h h h B.B.B.h h h z z z z z h z z z b.z.z.y.q.q.q.q.j.t t $ @ = = @ @ w t t t t < - > e z z z j j ",
"h h h h h h h h h h h h z z z z z h h h h h z z z z j p p r r r r r r r r r r r r r = = = = = = = = = = - - - = = = = - 4 a a a ",
"z z z z z z z z z z z P.z j j j z z h h z z z z z j 3 - : : : : : : : : : : : : : : = = = = = @ = = = = = = = = = = = = - a a a ",
"j z z j z z z z z z z z j j j j j z z z z z z z z 2 - - - - - - - - - - - - - - - - - - - % - - - - - % - - - - - - - - - p N N ",
"a a a a j j j j j j j j j a a a a j z z z z z j a a a a j z z z z z z z z z z z z z z z z z z z z z z z a a a a a a a a N N N N ",
"a a a a a a a a a a a a a a a a a a a j j a a a a a a a a a j j j j j j a a a a a a a a j z z z z j a a a a a a N a N N N N N 7 ",
"N a a a a a a a a a a a a a N N a a a a a a a a a a a a a a a j a a a a a a a a a a a C a a a a a a a a a C C v v 7 v N 7 7 7 7 ",
"v v v C C C C C v v v v v 7 7 7 7 v v v v v v v C C C C C C C C C a a C C C C C v v v v v v v v C C v v v v v 7 7 7 7 7 7 q q q ",
"7 7 7 7 v v v 7 7 7 7 7 7 7 7 7 q 7 7 7 7 7 7 v v v v v v v v v v v v v v v v v v 7 7 7 7 7 7 7 v v v v v 7 7 7 q q q q q q q q ",
"q 7 7 7 7 7 q q 7 7 7 q q q q 9 q q q q q 7 7 7 7 7 7 7 7 7 7 7 7 7 7 7 7 7 7 7 7 7 q q q q 7 7 7 7 7 7 7 7 q q 9 9 q q q q 9 9 ",
"q q q q q q q q 9 9 q 9 9 9 9 9 9 9 9 9 q q q q q q q q 7 q q q q 7 7 q q q q q q q q q q q q q q q q q q q q q 9 q 9 9 9 9 9 9 ",
"9 9 9 9 9 9 9 9 9 q q q 9 9 9 9 9 9 9 9 9 q q q q q q q q q q q q q q q q q q q q q q q q q 9 9 q q q q q q 9 9 9 9 9 9 9 9 9 9 ",
"9 9 9 9 9 9 9 9 9 9 9 9 9 9 9 9 9 9 9 9 9 9 q q q q q q q q q q 9 q q q q q q 9 9 9 9 9 9 9 9 9 9 9 9 9 9 9 9 9 9 9 9 9 9 9 9 9 ",
"9 9 9 9 9 9 9 9 9 9 9 9 9 9 9 9 9 9 9 9 9 9 9 9 9 9 9 9 9 9 9 9 9 9 9 9 9 9 9 9 9 9 9 9 9 9 9 9 9 9 9 9 9 9 8 8 8 8 8 8 8 8 8 8 ",
"9 9 9 9 9 9 8 8 8 8 8 8 8 8 8 9 9 9 9 9 9 9 9 9 9 9 9 9 9 9 9 9 9 9 9 9 9 9 8 8 8 8 8 8 8 + 8 8 8 8 8 8 8 8 8 8 8 8 8 8 8 8 8 8 ",
"8 8 8 8 8 8 8 8 + 8 8 O O O + 8 8 8 8 8 8 8 8 8 8 8 8 8 8 8 8 8 8 8 8 8 8 8 8 8 8 8 8 8 8 O O 8 8 O O O 8 8 O L.O 8 O O O O O + ",
"+ + + + O O O O O O O O O O O O O O L.O O + + + + + + + + + 8 + O O O O + O O O + + + + O O O O O O O O O O O O O O O O O O O O ",
"O O O O O O O O O O O O O O O O O O O O O O O O O O O O O O + + O O O O O O O O O O O O O O O O O O O O O O O O O O O O O O O O ",
"O O O O O O O O O O O O O O O O O O O O O O O O O O O O O O O O O O O O O O O O O O O O O O O O O O O O X X X X X X X X X X X O ",
"X X . . . . . . . . . . . . o O O O O O O O O O O O O X X X O O O O O O O O O O O O O O O O O O X X . . . . . . . . . . . . X X ",
". . . . . . . . . . . . . . . . o O O X O o X O . . . . . X X X O O O O O O O X X X . . X X X X X . . . . . . . . . . . . . X X ",
". . . . . . . . . . . . . . . o o O O X X X . . . . . . . . . . . . X X . . . . . . . . . . . . . . . . . . . . . . . . . . X O ",
". . . . . . . . . . . . . . . . . . . . . . . . . . . . . . . . . . . . . . . . . . . . . . . . . . . . . . . . . . . . . O O O ",
". . . . . . . . . . . . . . . . . . . . . . . . . . . . . . . . . . . . . . . . . . . . . . . . . . . . . . . . . . X X O O O O ",
"O . . . . . . . . . . . . . . . . . . . . . . . . . . . . . . . . . . . . . . . . . . . . . . . . . . . . . . . . . X X O O O O ",
"O X . . . . . . . . . . . . . . . . . . . . . . . . . . . . . . . . . . . . . . . . . . . . . . . . . . . . . . . X O O O O O O ",
"O O o o O O . . . . . . . . . . . . . . . . . . . . . . . . . . . . . . . . . . . . . . . . . . X . X . . . . X X O O O O O O O ",
"O O O O O O o . . . . . . X . X O X X X O X X X X X X X O X X X J.O O O X X O X X X X X X X X X O X X X X X X X O O O O O O O O ",
"O O O O O K.O O O O O O O O O O O O O O O O O O O O O O O O O O O O O O O O O O O O O O O O O O O O O O O O O O O O O O O O O O ",
"+ + + O O O O O O O O O O O O O O O O O O O O O O O O + + + + O + O + + O + O O O O O O O O O O O O O O O O O O O 8 8 8 8 8 8 8 ",
"8 8 8 8 8 8 O O O O O O + O O O O + + + 8 8 8 8 8 8 8 8 8 8 8 8 8 8 8 8 8 8 8 8 8 8 8 8 + + O O O O O O 8 8 8 8 8 8 8 8 8 9 9 9 ",
"9 9 9 9 9 9 8 8 8 8 8 8 8 8 8 8 8 8 8 8 8 8 8 8 8 8 8 8 8 8 8 8 8 8 9 8 8 8 9 9 9 9 8 8 8 8 8 8 8 8 8 8 8 8 9 9 8 9 9 9 9 9 9 9 ",
"9 9 9 9 9 9 9 9 9 9 9 8 9 9 9 9 8 8 8 8 9 9 9 9 9 9 9 9 9 9 9 9 9 9 9 9 9 9 9 9 9 9 9 9 9 9 9 8 8 9 9 9 9 9 9 9 9 9 9 q q q q 9 ",
"9 9 9 9 9 q 9 9 9 9 9 0 x i i 0 5 8 9 9 9 9 0 0 0 9 9 9 9 9 0 0 0 0 0 0 0 0 0 0 0 0 0 q 0 0 9 9 9 9 9 9 9 9 9 q 9 9 q q q q q q ",
"9 q 9 q q q q q q q 0 x i i i u , 2 5 0 0 0 u i u 0 0 0 q q q q q q q q q q 7 7 q q q q q q q q q q q q q q q q q q q q q q q q ",
"q q q q q q q q q q 3 u i i i y -     > w i i i i i i u q q q q 7 7 7 7 7 7 7 7 7 7 7 q q 7 q q q q 7 7 7 q q 7 q q q q q 7 7 7 ",
"q 7 7 7 7 7 7 7 6 4 - w t t t , -     % > u i i i i i i S x 7 7 7 7 7 N N N N N 7 N N N 7 7 7 7 7 7 7 7 7 7 7 7 7 7 7 7 7 7 7 7 ",
"v v v v N N p ; - = = = - - = = = = = = =   , y y y y y y y y y y 6 6 N a a a a a a N N N N N N N N N N N N N N 7 7 N N N N N N ",
"C a a a j j e - - - - - - - - - - - - - - - - - - - - - - - - - - - - 4 a a a a a a a a a a a a a a a C a a a a a a a a a a a a ",
"j j j z z z p 3 3 3 3 3 3 3 3 3 3 3 3 3 3 3 3 3 3 3 3 3 3 3 3 3 3 3 3 4 a j a j a a a a a a a a a a a a a a j j a j j a a a a a ",
"z z h h h h B.B.B.h h h h h B.h h z z j j a a a a a a a C C C C a a a a a a j j a a a a a a a a a a a a a a j z z z z a a a a a ",
"h h h h B.B.H H H B.B.h h h h h h h z z j a a a a a a a C C C C a a a a a a a a a a a a a a a a a a a a a a j z z z z j j a a a ",
"h h B.B.H H H R R H B.B.h h h h B.h h z z j a a a a a a a a a a a a a a a a a a a a a a a a a a a a a a a a z z h z z j j a a a ",
"B.B.B.H R R R *.R R R H H H H B.B.H B.B.h h j j j j z j j z j j z z j z z z z j j z z j j j a a a a a a z z z h h h h z z z z z ",
"R R R R *.*.] ] ] ] ] R R R R R R R R R B.B.h h h h h h h h h h h h h h h h h h h h h h h h z z z z z z z h h B.B.h h h h h h h ",
"*.*.] ] ] ] ] ] ] ] ] ] ] ] / ] U.] ] / R R H H H H H H H H H H H H H H H H H H H H H H H 1 1 1 1 1 1 h B.H I.H H H R R H H R H ",
"] ] ] ] ..............] ......] ] ] ] ] ] *.*.*.R R R R *.*.*.*.*.*.*.R R R R R R R *.R R R R R R R R R R R R R R R R *.*.*.*.*.",
"] ......................................] ] ] ] ] ] ] ] ] ] ......] ] ..*.*.*.*.] ] ] ] ] ] *.] ] ] ] ] ] *.*.R ] *.] ] ] ] ] ] ",
"] ..........................................] ..] ............................] ..........] ] ] ] ] ] ] ] ] ] *.] *.*.] ] ] ] ] ",
"..........5.............5.5.5.5.5.............................5...5.5.5...................] ] ] ] ........] ] *.*.*.*.] ] ] ] ] ",
"..........5.1.1.....5.1.1.1.1.1.D D ..............5.5.5.5.5.5.5.5.5.................] ] ] ] ] ] ] ] ......] ] *.*.*.*.*.*.*.*.*.",
"........5.5.1.1.....5.1.1.1.1.1.1.1.1.5.5.......5.5.5.5.1.1.1.1.1.1.5...................] ] ] ] ] ........] ] *.*.*.*.*.*.*.*.*.",
"......5...5.1.1.5.5.5.1.1.1.1.1.1.5.1.5.5.....5.5.5.5.5.1.1.1.1.1.1.5.................] ] ] ] ] ] ......] ] *.*.*.*.*.*.*.*.*.*.",
"] ......5.5.5.5.5.5.5.1.1.1.1.1.1.5.5.5.......5.5.5.5.5.1.1.1.1.1.5...............] ] ] ] *.] ] ] ] ..] ] ] ] *.*.*.*.*.*.*.R R "
};
