/* XPM */
static char *result[] = {
/* columns rows colors chars-per-pixel */
"64 64 61 1 ",
"  c #552E4A",
". c #713C62",
"X c #CE7EF1",
"o c #EB75FF",
"O c #EE79FE",
"+ c #F077FF",
"@ c #F37BFD",
"# c #F97EFE",
"$ c #CF86EF",
"% c #CF89EE",
"& c #D189E6",
"* c #D185ED",
"= c #D48BEC",
"- c #D88EED",
"; c #CF84F2",
": c #D083F1",
"> c #D985F3",
", c #D489F5",
"< c #DE8DF3",
"1 c #DE8CF8",
"2 c #DE93F3",
"3 c #FE9FEF",
"4 c #E282F5",
"5 c #E48DF2",
"6 c #E98CF4",
"7 c #EF86FA",
"8 c #F48DF6",
"9 c #FC8EF7",
"0 c #F682FC",
"q c #FA85FB",
"w c #F58CFB",
"e c #FC8AF9",
"r c #E394F6",
"t c #EC91F3",
"y c #E59BF5",
"u c #E99CF5",
"i c #E397F8",
"p c #EC97FA",
"a c #ED9AFA",
"s c #F492F3",
"d c #FE95F6",
"f c #FE9BF2",
"g c #F491FA",
"h c #FE92F8",
"j c #FEAFE7",
"k c #FEA4EE",
"l c #FEACEA",
"z c #FEB2E7",
"x c #FEB1E8",
"c c #EFA5F6",
"v c #EFA9F5",
"b c #EEA3F8",
"n c #F2A4F5",
"m c #FEA1F0",
"M c #F2A9F4",
"N c #F8A5FE",
"B c #FAA8FE",
"V c #FEBDF6",
"C c #FEC4F1",
"Z c #FFE3F7",
"A c white",
/* pixels */
"xzzzzzzzzxzxzzzzzzzzzzzzzzzzzzzzzzzzzzzxxzzxxxjxjjxxzzzjzjxxxxxj",
"zzzzzzzzzxxzzzzzzzzzzzzzzzzzzzzzzzzzzzxzzxzxxxxxxxxxzzzzjxxxxjxx",
"zxzzxxxxxxxzxzzzzxzzzzzzzzzzzzzxzzzzzzzzxxxjxxxjjzzzzzjjxxxxxxlx",
"zzxxxxxxxxxxxzzzxzxxzzzzzzVzzxxxzzxzxxxxxxjjxjjjjzzzzxjjxjlxxxxx",
"xxxxxxxxxxxxxxxxxxxxxxjjzzjjjlxxxxxxxlxljljlllljjljlxjjjlxlllxlx",
"xxxxjxxxxxxxxxxxljxxxljjxxjjlxljlxllxxxxjjjjxjljljjjljjjlxllljjl",
"jjljlxllllllllxlljjjxljjjjllllllljllllllllllllllMlkvvMjjllllllll",
"llllllllllllllllllllllkllkklllmlmllmllmvvvklklkl&bvvvvMlllllmlml",
"llkllklklmlmmllmkkkklkkkkkkkkkkkmkmnncccccvccb%%&bccccccnmkkkkmm",
"kkkkmkmkmmmmmmmmmmkkkmkm3ff3f3f3mmfncccccccc==%$%*bccccy-ffffffm",
"mmkmmmmmmmmmmfmffk33fmmff:;::;::::;::nbnbcuu*$;$$$ruuua2:2tfffff",
"fffmfff3mffmfffffffffffff:::;*:::;:::iirii;:$;%:$$;;;,:::;;;tfdd",
"fffffffffffVfdfdff33ffff:zzZZZZZZZZZZ::,,,::::*:$$;;::;:::::,ddh",
"fffddfffdfdfdfdfdfdfdffd:zzZZZZZZZZZZ;:::::*:*:*;;X$:,:::>XXX8dd",
"ddddfddffdfddfdfdffd3d;:zZZZZZ::;::::ZZ:dfddffffffdfddddhdhdhhhh",
"ddfddfddfdfdddddfddd;*zzZZZZZ:       ::Z::dffddfdfddfddhhddhd9hh",
"ddddddddfddddddddddd**jxZZZZZX       ::Z::dddddddddddddhhehh99h9",
"hhhdhhdd999d999e9e9h::zzZZZ;: .......  :ZZ::hddddhhdhhhe9h9eeeee",
"9999hhhh99999ee9eee9::zzZZZ:: .......  ;ZZ::9999h9hh9999eeeqeeee",
"e999eeee9999eeeeee**zzzzZZZ;:..........:ZZ**eeee9e9999eqeqqeqeqq",
"q9qeeeqeq9###e9#qq*;zzzzzZZ*;.AA.....AA:ZZ::eeeeqeeeeqqeeqqqqqqq",
"qqeqqqwqq98e99#eeq;:zzzzzZZ::.AA.....AA:ZZ::eqeqeqeeqqqqqqqqqqqq",
"eeqeqwwq9##9#e#9qe::zz;:zZZ::.AA.....AA;ZZ;:qeqqqqqqeqqqqq#qqqqq",
"00qqqqqqq#8#qq9#qq;:zz::jZZ;:.AA.....AA:ZZ::qqqqqqqqqqq0qqqq##q#",
"q000000008@####9qq::zz::zZZ:: .........:zz*:@qq##qqq#q#q##00#00#",
"0000##00####@@##00::zz::zZZ:: .........;zz*:@#@##@#@@##M##0@@0##",
"#@@@@@@@@@@###@@##B#X*::zzzZZ:  .....  :jz&X####@#@0@#@@@#@0@@@@",
"@@@@@@@@@@@@@@#@@@@@#@@@:zzzzz;*     ::j*X@@@#@@@@@@@@7OOOOOO@O@",
"@@@@@o++@@oO@OO@@@@@@@@@:zjzzz:;     ;*jX&O@@@@@@@OOOOOOOOOOOOO@",
"OOoo@ooooooo+++++@+++++@@;:;:zzz;::::zz;O@@OOOOO@OOOoooooOOooOOO",
"Oooooooooooooo++++++++++O::::zzz::;::zz:o@OOOOOOooooooXooooooOOO",
"ooooooooooooo++++@++OOOO;jzzzzZZZZZZZZZz&XoOOoooooooooooooooO+OO",
"oooooooooooooo+o++oooo:;zZZZZZZZZZZZZZZZzz::ooooooooooXooooO+++@",
"++oooooooooooooooooooo;*zZZZZZZZZZZZZZZZzz:;ooooooooooooooO++@+@",
"++oooooooooooooooooooo::zZZZZZZZZZZZZZZZzz:;ooooooooooooooo@@O@@",
"++oooooooooooooooooooo;:zZZZZZZZZZZZZZZZzz:;oooooooooooooo++O@@@",
"+@@++++OooooOoOo+oooOO;;ZZZZZZZZZZZZZZZZZZ:*ooOOooOOOooOOOO@@@@#",
"@@@++@+@ooooOOOO++++::zzZZZZZZZZZZZZZZZZZZ::OOO@ooOOOOO@@@@@@#@@",
"#@@@@N@@@ooo@O@O@+@+::zzZZZZZZZZZZZZZZZZZZ;;OO@OoOOO7@@@@@#@@###",
"###@#@@@@ooo@@@@@@@#;:zzZZZZZZZZZZjZZZZZZZzz*$@@OO00@@@0#0000000",
"####q###@0@0@0####0@&XzzZZZZZZZZZZzZZZZZZZzz*:@@@@0@00@000qq0qqq",
"qqqqqq0000000000@0@0*$zzZZZZZZZZZZzZZZZZZZzz::0#000000q7w0qqwqqq",
"qqqqqqqqqq00q00weq00::zzZZZZZZZZzz*xzZZZzzzz$Xq0007q07qq0qeqqeqq",
"qqqqqqwqq0ww8paw6@e0:*zzZZZZZZZZzz;zzZZZzzzz$$q0e8qqqqqewqwqeqww",
"qqqeeeeqeqegaaaa14;*zzzzzZZzzZzzzz:zzzzZzzzz::wee090eqeqeq8eeeeq",
"eeeeeeeeqw5aaaar:X::zzzzzZZzzZzzzz:zzzzZzzzz:%9eeee89ee8eeeeee89",
"eee99999w6,raaa1XX;:zzzzzzzZZzzz::9::zzzzzzz::h99999999999899999",
"hhhhhh9>X::;;;::::::zzzzzzzZZzzz;:8::zzzzzzz:;hhd9dd9hs99999ddhh",
"hdddfdt*:**::::*::::zz::zzzzzz::,,:;:zzz::xx::hddddddddddddddddd",
"fdffffs55r55r5555555:::;z:;zzz;:6566d;:zzz::dddddddddddddfdfdddd",
"ffffffmm3fmmffmfffff:*;:z:*zjz:;hhddd;:zzz::hddddddddfdfffdddddd",
"fffmmfkmk3mfmkfmffffdd:::dh;:;*:ddddd$::::ddddddddhdddfdfffdfdfd",
"mfmmmkmkkkkmmfmmmmffff:::dh*;:::dhddd:::::ddddfddddddffffffffddd",
"mmmmkkklkkkkkkmmmmmmfffffdfdfdfffffffffdffdfdfddfdfddfffffffffff",
"llmklklklllklkkkkkkkmmmffff3f3ffffffffffffffffffffffff33kffmmffm",
"lmllllllllkllkllCklkkkkmkkkkkkkkk3kkkmkkkkkm33km333f3kVkkkkkkkkm",
"llljllljllljlllljlllkllmmlmllmlllklmlmlmklkmlmmmlmlmkmkkklklkkll",
"lllljljljljlljljllllllllllllllllljllllllllllllllkklklllklklkllkl",
"llxllxlxjjlxxljllxlllllllllxllxxjlllxllllllllllmllllllkllklllkll",
"llljxxjjjjlxxjxxxjxjllllxlljxxxxjjxxllxllxlxllllllllllllklklkllk",
"ljxxxxxzjxxzxxxxzzjjljljlxxxxxxzxxxlxllllllllllllllllllkklklllkl",
"lxlxxxxzxjxzxxzzzzxxxjxjxxxxzzzzxxxxxllxllllllklllllllkllklkkllk",
"lljxjxxxjxxzzzzzzxxxxjxxjxxxzzzxxxxxxlxlllllllllllllllllklklklkl",
"lllxxxxxjxxzzzzzxxxxljlxxxjxxxxxxllxxxlllllllkkllllllllmlklkllkk"
};
