/* XPM */
static char *deb7f79e3a5b482fe58f70b1f8cc31779inLVNHzyK8rWG5U[] = {
/* columns rows colors chars-per-pixel */
"64 64 166 2 ",
"   c #EB76FE",
".  c #EE79FE",
"X  c #F077FF",
"o  c #F47BFE",
"O  c #F97EFE",
"+  c #CDB4D9",
"@  c #CEBBDD",
"#  c #D2B5DC",
"$  c #D1BCDE",
"%  c #DD8AEB",
"&  c #E394EC",
"*  c #EE94EC",
"=  c #EB98EB",
"-  c #FE9FEF",
";  c #EB84F9",
":  c #F48BF2",
">  c #FD8EF7",
",  c #F781FC",
"<  c #FA85FB",
"1  c #FC8AF9",
"2  c #F492F1",
"3  c #FE95F6",
"4  c #FE9BF3",
"5  c #FE92F8",
"6  c #D3BDE2",
"7  c #DABDE6",
"8  c #D5BEE8",
"9  c #FEAFE7",
"0  c #FEA6ED",
"q  c #FEA4EE",
"w  c #FEABE9",
"e  c #FEA8EB",
"r  c #FEA9EB",
"t  c #FEAAEA",
"y  c #FEABEA",
"u  c #FEAAEB",
"i  c #FEABEB",
"p  c #FEADE8",
"a  c #FEACE9",
"s  c #FEADE9",
"d  c #FEACE8",
"f  c #FEAEE8",
"g  c #FEAFE8",
"h  c #FEAEE9",
"j  c #FEAFE9",
"k  c #FEACEA",
"l  c #FEACEB",
"z  c #FEAEEA",
"x  c #FEAFEA",
"c  c #FEA8EC",
"v  c #FEA9EC",
"b  c #FEA8ED",
"n  c #FEA9ED",
"m  c #FEAAEC",
"M  c #FEABEA",
"N  c #E5BEE2",
"B  c #FEB0E7",
"V  c #FEB1E7",
"C  c #FEB2E7",
"Z  c #FEB3E7",
"A  c #FEB1E7",
"S  c #FEB0E8",
"D  c #FEB1E8",
"F  c #FEB0E9",
"G  c #FEB2E8",
"H  c #FEB0E8",
"J  c #FEA0F0",
"K  c #FEA1F0",
"L  c #FEA0F1",
"P  c #FEA1F1",
"I  c #FEA2F0",
"U  c #FEA3F0",
"Y  c #FEA2F1",
"T  c #FEA1F0",
"R  c #D1C4D6",
"E  c #D3C2DC",
"W  c #E3F4CB",
"Q  c #E6F4CC",
"!  c #E5F5CD",
"~  c #E9F6CF",
"^  c #E7EBD6",
"/  c #E8EFD7",
"(  c #E7E9DE",
")  c #E6EFDB",
"_  c #EAEDDD",
"`  c #E5F3D1",
"'  c #E5F7D0",
"]  c #E7F5D3",
"[  c #E7F5D6",
"{  c #E6F6D6",
"}  c #E7F3D1",
"|  c #E9F3D3",
" . c #E8F3D3",
".. c #E8F4D1",
"X. c #E8F4D3",
"o. c #E9F4D3",
"O. c #E9F5D3",
"+. c #EAF3D6",
"@. c #E8F4D4",
"#. c #E8F5D4",
"$. c #E9F4D4",
"%. c #EAF4D4",
"&. c #EBF4D5",
"*. c #E9F6D4",
"=. c #EAF6D5",
"-. c #E8F4D6",
";. c #E9F4D6",
":. c #E9F4D3",
">. c #EBF2DB",
",. c #F0F5DA",
"<. c #D6C2E4",
"1. c #D8C4E5",
"2. c #DAC9E4",
"3. c #D9CAE5",
"4. c #DDCBE9",
"5. c #E0CEE6",
"6. c #EAC8EA",
"7. c #E2D6E3",
"8. c #E3D3E7",
"9. c #E3D6E4",
"0. c #E4D5E6",
"q. c #E2D6E3",
"w. c #E4D7E9",
"e. c #E4D6EB",
"r. c #EAD6EA",
"t. c #E6DFEB",
"y. c #E6DEED",
"u. c #E5DEED",
"i. c #E9DFEB",
"p. c #EDDEF4",
"a. c #E5E1E4",
"s. c #E4E0E7",
"d. c #E7E2E7",
"f. c #E6E4E4",
"g. c #E9E5E6",
"h. c #E8E8E7",
"j. c #EBECE4",
"k. c #E7E2E8",
"l. c #E7E0EA",
"z. c #E7E4EA",
"x. c #E7E0EC",
"c. c #E7E3EB",
"v. c #E8E3EC",
"b. c #E8E3ED",
"n. c #E9E3ED",
"m. c #EAE2ED",
"M. c #E8E1EE",
"N. c #E8E2EF",
"B. c #E9E3EF",
"V. c #EAE2EE",
"C. c #ECE3EF",
"Z. c #E9E4EE",
"A. c #EAE4EF",
"S. c #EBE6EE",
"D. c #EAE3ED",
"F. c #EDEBEB",
"G. c #EEF1E2",
"H. c #EEF0E8",
"J. c #F0F4E3",
"K. c #EFE2F3",
"L. c #EAE4F1",
"P. c #EDE2F2",
"I. c #F0E2F6",
"U. c #F0E2F7",
"Y. c #F0E7F6",
"T. c #F0E4F4",
/* pixels */
"D C C C C C C C C C C C C C C C C C C C C C C C C D D D C C D D D C C C C D D D D D D D D D D D D C C C C C C C C D D D D D D D ",
"C C C C C C C C D D D D D D D C C C C C C C C C C C C C C C C C C C C C C D D D C C C C C D D D D C C C C C C C D D D D D D D D ",
"C C C D D D D D D D D D D D D D D D D D C C C C C C C C C C C C C C C C C D D D C C C C C D D D D C C C C C C C D D D D D g g D ",
"D D D D D D D D D D D D D D D D D D D D D D C C C C C C C C C C C C C C C D D D C C 9 g g g g g g 9 C C C C C C D D D D D g g g ",
"D D D D D D D D D D D D D D D D D D D D D D D D D C C C 9 g g D D D D g g g g g g g g g g g g g g g g g 9 9 9 g g g g g g g g g ",
"D g D D g D g g D D D D D D D D D D D D D D g g g g g g g g g g g g g g g g g D g g g g g g g g g g g g g g g g g g g g g g g g ",
"g g g g g g g g g g g g g g g g g g g g g g g g g g i g g i g g g g i i i g g g g g g g i i i i i i i i g g i i g i i i g g g g ",
"i i i g g g i i i i i i i i i i i i i i i i i c c c c c c c c c c c c 0 c c 0 0 c c i i e 0 0 0 0 0 c c c c c c c c c 0 0 0 0 0 ",
"i c 0 c c 0 0 c 0 0 0 0 0 0 0 0 0 0 0 0 0 0 0 q 0 q q q q q q q q q q q q 0 q 0 0 0 0 q q q q q q 0 q 0 q q q q q q q q q q K K ",
"0 0 0 0 0 0 q q q q q q K K K K K K q K K K K 4 4 4 4 4 4 4 K 4 4 4 4 4 4 K K K K K K K K K K K K 4 4 4 4 4 4 4 4 4 4 4 4 4 4 4 ",
"q q q K K K K K K K K K 4 4 4 4 4 K K K K 4 4 4 4 4 4 4 4 4 4 4 4 4 4 4 4 4 4 4 4 4 4 4 4 4 4 4 4 4 4 4 4 4 4 4 4 4 4 4 4 4 4 4 ",
"4 4 4 4 4 4 4 4 4 4 4 4 4 4 4 4 4 4 4 4 4 4 4 4 4 4 4 4 4 4 4 4 4 4 4 4 4 4 4 4 4 4 4 4 4 4 4 4 4 4 4 4 4 4 4 4 4 4 4 3 3 3 3 3 ",
"4 4 4 4 4 4 4 4 4 4 4 4 4 4 4 3 4 4 4 4 4 4 4 4 4 4 4 4 4 4 4 4 4 4 4 4 4 4 4 4 4 4 4 4 4 4 4 4 4 4 4 4 4 4 3 3 3 3 3 3 3 3 3 3 ",
"4 4 4 4 4 4 4 4 4 4 4 4 4 4 4 3 4 4 4 4 4 4 4 4 4 3 3 4 4 4 4 4 4 4 4 4 4 4 4 4 4 4 4 4 4 4 4 4 4 4 4 4 4 4 3 3 3 3 3 3 3 3 3 3 ",
"3 3 3 3 4 4 4 4 4 4 4 4 4 3 3 3 3 4 4 4 4 4 4 4 3 3 3 3 4 4 4 4 4 4 4 4 4 4 4 4 4 4 4 4 4 4 4 4 4 4 4 4 3 3 3 3 3 3 3 3 5 5 5 5 ",
"3 3 3 3 3 3 3 3 3 3 3 3 3 3 3 3 3 3 3 4 4 3 3 3 I.I.I.K.3 3 4 4 4 4 4 4 3 3 3 3 3 3 3 3 3 4 4 4 4 4 3 3 3 3 3 3 5 3 5 5 5 5 5 5 ",
"5 3 3 3 3 3 3 3 3 3 3 3 3 3 5 5 3 3 3 3 3 3 4 | -.-.h.N.N.3 3 3 3 3 3 3 3 3 3 3 3 3 3 3 3 3 3 3 3 3 3 3 3 3 3 5 5 > 5 5 > > > > ",
"5 5 5 3 3 3 3 3 5 5 5 5 5 5 > > > 5 5 5 d.[ ] -.X.+.-.X.x.L.y.3 3 3 3 3 3 3 3 3 5 5 5 5 5 5 5 5 3 3 5 5 5 5 5 > > > > > > 1 1 1 ",
"> > > > 5 5 5 5 > > > > > > > > 1 > > Y.[ ] ] X.X.-.-.-.d.S.t.= 5 5 5 5 5 5 5 5 5 > > > > > > > 5 5 5 5 5 > > > 1 1 1 1 1 1 1 1 ",
"1 > > > > > > > > > > 1 1 1 1 < 1 1 8.N.-.-.X.X.X.-.-.-.` S.k.@ $ > > > > > > > > > 1 1 1 1 > > > > > > > > 1 1 < < 1 1 1 1 < < ",
"1 1 1 1 < < < < < < < < < < < < < < 0.N.-.X.X.X.X.-.-.| ( N.N.2.$ $ > 1 1 1 1 1 1 < 1 1 1 1 1 1 1 1 1 1 1 1 1 1 < 1 < < < < < < ",
"< < < < < < < < < < < < < < < < < < 9.k.-.X.X.X.X.X.-.X.d.N.N.w.$ $ 1 1 1 1 1 1 1 1 1 1 < 1 < < < < < < 1 1 < < < < < < < < < < ",
"< < < < < < < < < < < < < < < < < < 7.k.S.W X.X.X.| Q C.N.N.N.6 6 $ < < < < < < < < < < < < < < < < < < < < < < < < < < < < , < ",
"< < < < < < < < < < < < < < < < < < 7.k.N.j.X.X.X.| _ v.N.N.N.6 6 $ < < < < < < < < < < < < < < < < < < < < , , , , , , , , , , ",
"< , , , , , , , , , , , , , , < < < < S.v.v.f.f.f.f.v.N.N.N.<.$ 6 E p.C.N.6.r., , , , , , , , , , , , , , , , , , , , , , , , , ",
", , , , , , , , o O O O O O O , , , N f.v.v.v.v.v.v.v.N.N.N.6 $ $ K.F.>.;.>.z.T., , , O O , , , , O O O , , O O O O O O O O O O ",
"o o o o O O o O O o o O O O O O O O k.S.z.z.v.v.v.C.C.v.D.$ 6 6 6 z.` ` ` ] d.C.e.O O O O O O O O O O O O O O O O O o o o o o O ",
"o O o o o o o o o o o o o o o o o o k.S.z.z.v.v.v.C.C.v.E 6 6 4.K.g.| | ` ] v.v.u.O o o o O O O O O o o o o o o . o o o o o o o ",
"o o o o o o o o o o o o o o o o o o N.N.N.N.N.N.N.E $ $ 6 6 6 N.C.g.| | | X.v.C.N.o o o o o o o o o o . . . . . . . . . . . . o ",
". . . . . . . . . . . . . . o o o o N.N.N.N.N.N.N.R E E E v.v.N.C.f.>.+./ >.v.C.N.; o o . o o . . . .               .   . . . . ",
". .         .           N.C.C.C.C.C.N.N.N.N.N.N.N.N.C.C.N.v.v.C.D.v.v.z.z.D.N.C.N.w.. . . . . . .                   .     . . . ",
"                      ) ) _ _ _ >.>._ d.N.N.N.N.N.N.N.C.N.C.C.S.S.S.v.v.v.v.N.N.N.N.N.N.N.; ; .                         . . . . ",
".                 p.G.! -.] X.X.X.X.] ` v.N.N.N.N.N.N.N.N.N.N.N.N.N.N.v.N.N.N.N.N.N.k.v.N.N.v.N.I.    6 7 7       . . . . . o o ",
". . . . .         _ @.@.-.-.X.X.X.X.X.X.C.v.N.N.N.N.N.K.C.~ ~ ~ X.| +.N.N.N.N.N.z.K.K.E @ @ C.N.N.N.C.$ 6 6 6 #   . . . o o o o ",
"X . . . . .     K._ @.+.-.-.X.X.X.X.X.X.v.N.N.N.N.N.C.N.-.O.O.O.X.| X.j.N.N.N.N.h.W ^ d.@ 6 @ N.N.N.v.N.C.$ $ +   . . o o o o o ",
"o . . . . . .   C._ +.+.-.-.X.X.X.X.X.-.k.N.N.y.4.N.T.X.| X.X.X.X.X.X.h.N.v.N.K.] X.X.j.P.$ 6 6 N._ ] f.C.C.K.$ % . o o o o o o ",
"o X X X X o . i.D._ +.-.-.-.X.X.X.X.X.+.N.S.N.y.6 p.C.X.X.X.X.X.X.X.X.j.N.v.6 K.X.X.&.g.N.N.6 6 i._ Q f.N.C.K.6 6 o o o o o o O ",
"o o o o o o X i.v.C.j.G.Q ~ X.X.X.X.G.t.k.v.v.y.6 6 G.-.-.X.X.X.X.X.~ _ N.z.6 6 ] X._ C.N.N.6 6 $ g.G.g.N.C.K.6 6 o o o o O O O ",
"O O o o o o o i.C.v.N.N.h.j.j.j.j.j.S.x.k.v.K.3.6 6 F.-.X.X.-.-.-.O.+.g.N.k.6 6 H.W ` g.N.N.6 6 $ C.N.N.v.C.4.6 6 O O O O O O O ",
"O O O O O O O i.C.C.N.N.N.N.N.N.N.N.N.N.N.S.K.6 6 6 K.&.~ ~ O.O.O.,.K.v.N.N.6 6 K.j.C.C.N.v.6 6 6 1.w.i.<.1.$ 6 6 , , , , , , , ",
", , , , , , O E v.C.N.N.N.N.N.N.N.N.N.N.N.C.6 6 6 6 <.K.v.K.K.K.K.C.v.v.v.6 6 6 1.N.v.v.v.<.6 6 6 6 6 6 8 8 6 6 & , , , < < < < ",
"< < < < < < , $ E C.C.N.N.N.N.N.N.N.N.N.v.C.6 6 6 6 6 @ v.N.N.N.N.C.C.v.C.$ $ $ $ $ $ $ $ 6 6 6 6 6 6 6 6 6 6 7 , < < < < < < < ",
"< < < < < < < 6 E C.N.N.N.N.N.N.N.N.N.N.C.6 6 6 6 6 6 6 6 C.N.N.N.N.N.N.$ $ $ $ 6 6 $ $ $ 6 6 6 6 , 6 6 6 6 6 < < < < < < < < < ",
"< < < < < 1 < < 6 5.C.N.N.N.N.N.N.N.v.P.6 6 6 6 6 6 6 6 6 6 C.C.C.C.C.2.$ 6 6 6 6 6 6 6 6 $ $ 6 6 , < < < < < < < < < < < < < < ",
"< 1 < 1 1 1 < < < @ p.P.N.v.v.v.N.N.P.6 6 6 6 6 $ # 6 6 6 6 6 6 6 6 6 6 6 6 # # 6 6 6 6 6 $ $ < < < < < < < < < < < < < < < < < ",
"1 1 1 1 1 1 1 1 1 1 : $ e.w.w.w.e.e.<.6 6 6 6 6 < < 7 6 6 6 6 6 6 6 6 6 6 2 > > * * * * * 1 1 1 1 1 1 1 1 < < > < > > < < > > > ",
"1 > > > > > > > > > > 5 5 6 6 6 6 6 6 6 6 6 7 1 1 > > > 8 6 6 6 6 6 6 6 5 5 5 5 > 5 5 5 > > > > 5 5 5 > > > > > > > > > > > > > ",
"5 5 5 5 5 5 5 5 5 3 3 3 3 4 3 3 3 3 5 5 5 > 5 > > > > > > > 5 6 6 + 3 3 3 3 3 3 3 3 5 5 5 5 5 5 3 5 5 5 5 5 5 5 5 5 5 5 5 5 5 5 ",
"3 3 3 3 4 4 4 4 4 4 4 4 4 4 4 4 4 4 3 3 3 3 5 3 3 5 3 3 3 3 3 3 3 3 3 3 3 3 3 3 3 3 3 3 3 3 3 3 3 3 3 3 3 3 3 3 3 3 3 5 5 5 3 3 ",
"4 4 4 4 4 4 4 4 4 4 4 4 4 4 4 4 4 4 4 4 4 3 3 3 3 3 3 3 3 3 3 3 3 3 3 4 4 4 3 4 3 3 3 3 3 3 3 3 3 3 3 3 3 3 4 4 3 4 4 3 3 3 3 3 ",
"4 4 4 4 4 4 K K K 4 4 4 4 4 4 4 4 4 4 4 4 3 3 3 3 3 3 3 3 3 3 3 3 3 3 3 3 3 4 4 3 3 3 3 3 3 3 3 3 3 3 3 3 3 4 4 4 4 4 4 3 3 3 3 ",
"4 4 4 4 K K q q q K K 4 4 4 4 4 4 4 4 4 4 3 3 3 3 3 3 3 3 3 3 3 3 3 3 3 3 3 3 3 3 3 3 3 3 3 3 3 3 3 3 3 3 3 4 4 4 4 4 4 4 3 3 3 ",
"4 4 K K q q q 0 0 q K K 4 4 4 4 K 4 4 4 4 4 3 3 3 3 3 3 3 3 3 3 3 3 3 3 3 3 3 3 3 3 3 3 3 3 3 3 3 3 3 3 3 3 4 4 4 4 4 4 4 3 3 3 ",
"K K K q 0 0 0 c 0 0 0 q q q q K K q K K 4 4 4 4 4 4 4 4 4 4 4 4 4 4 4 4 4 4 4 4 4 4 4 4 4 4 3 3 3 3 3 3 4 4 4 4 4 4 4 4 4 4 4 4 ",
"0 0 0 0 c c i i i i i 0 0 0 0 0 0 0 0 0 K K 4 4 4 4 4 4 4 4 4 4 4 4 4 4 4 4 4 4 4 4 4 4 4 4 4 4 4 4 4 4 4 4 4 K K 4 4 4 4 4 4 4 ",
"c c i i i i i i g i i i i i e i i i i e 0 0 q q q q q q q q q q q q q q q q q q q q q q q - - - - - - 4 K q K q q q 0 0 q q 0 q ",
"i i i i g g g g g g g i g g g i i i i i i c c c 0 0 0 0 c c c c c c c 0 0 0 0 0 0 0 c 0 0 0 0 0 0 0 0 0 0 0 0 0 0 0 0 c c c c c ",
"i g g g g g g g g g g g g g g g g g g g i i i i i i i i i i g g g i i g c c c c i i i i i i c i i i i i i c c 0 i c i i i i i i ",
"i g g g g g g g g g g g g g g g g g g g g g i g i g g g g g g g g g g g g g g i g g g g g i i i i i i i i i i c i c c i i i i i ",
"g g g g g D g g g g g g D D D D g g g g g g g g g g g g g g g D g D D D g g g g g g g g g i i i i g g g g i i c c c c i i i i i ",
"g g g g g D C C g g D C C C C C 9 9 g g g g g g g D D D D D D D D D g g g g g g g g i i i i i i i i g g g i i c c c c c c c c c ",
"g g g g D D C C g g D C C C C C C C C D D g g g D D D D C C C C C C D g g g g g g g g g i i i i i g g g g i i c c c c c c c c c ",
"g g g D g D C C D D D C C C C C C D C D D g g D D D D D C C C C C C D g g g g g g g g i i i i i i g g g i i c c c c c c c c c c ",
"i g g g D D D D D D D C C C C C C D D D g g g D D D D D C C C C C D g g g g g g g i i i i c i i i i g i i i i c c c c c c c 0 0 "
};
