/* XPM */
static char *_6882ffa464c492aa68cf8bbea7f0ef3TQUoCSWckfd3h9uI[] = {
/* columns rows colors chars-per-pixel */
"64 64 134 2 ",
"   c #EEA5A5",
".  c #060000",
"X  c #0D0000",
"o  c #130000",
"O  c #180202",
"+  c #1F0D0D",
"@  c #210606",
"#  c #240A0A",
"$  c #2A0D0D",
"%  c #231010",
"&  c #321313",
"*  c #3F2F2F",
"=  c #431D1D",
"-  c #452020",
";  c #4A2222",
":  c #402F2F",
">  c #512626",
",  c #5C2D2D",
"<  c #413131",
"1  c #5F3030",
"2  c #583F3F",
"3  c #643333",
"4  c #6D3F3F",
"5  c #753D3D",
"6  c #524343",
"7  c #7B4444",
"8  c #7D4848",
"9  c #864545",
"0  c #8A4646",
"q  c #8D4848",
"w  c #924B4B",
"e  c #9B4D4D",
"r  c #935555",
"t  c #9D5151",
"y  c #965959",
"u  c #985B5B",
"i  c #A24E4E",
"p  c #A55151",
"a  c #AA5353",
"s  c #A45E5E",
"d  c #A85E5E",
"f  c #B55656",
"g  c #BA5757",
"h  c #B75858",
"j  c #BB5A5A",
"k  c #8C6060",
"l  c #9C7272",
"z  c #A66464",
"x  c #A86060",
"c  c #A76868",
"v  c #AC6B6B",
"b  c #BD6464",
"n  c #B06E6E",
"m  c #B67676",
"M  c #BA7A7A",
"N  c #C55C5C",
"B  c #CA5F5F",
"V  c #C26666",
"C  c #CD6161",
"Z  c #C66B6B",
"A  c #C86D6D",
"S  c #D06464",
"D  c #D36D6D",
"F  c #C17F7F",
"G  c #CA7F7F",
"H  c #D67272",
"J  c #D57A7A",
"K  c #DB7D7D",
"L  c #9E9696",
"P  c #A09797",
"I  c #B6A6A6",
"U  c #C78383",
"Y  c #CB8282",
"T  c #D68787",
"R  c #DB8686",
"E  c #DB8585",
"W  c #DF8787",
"Q  c #DA8686",
"!  c #D48888",
"~  c #D68A8A",
"^  c #D18C8C",
"/  c #D18D8D",
"(  c #D38D8D",
")  c #D38E8E",
"_  c #D48F8F",
"`  c #D58F8F",
"'  c #D38D8D",
"]  c #DF8888",
"[  c #D49090",
"{  c #D69090",
"}  c #D79191",
"|  c #D89191",
" . c #DA9494",
".. c #DB9595",
"X. c #DD9696",
"o. c #D99090",
"O. c #E08787",
"+. c #E38A8A",
"@. c #E58C8C",
"#. c #E18A8A",
"$. c #E69696",
"%. c #E79696",
"&. c #E69595",
"*. c #E89696",
"=. c #E99797",
"-. c #E89696",
";. c #E79898",
":. c #EA9898",
">. c #EA9999",
",. c #EA9A9A",
"<. c #EA9B9B",
"1. c #EB9B9B",
"2. c #E99A9A",
"3. c #E9A0A0",
"4. c #EBA2A2",
"5. c #ECA3A3",
"6. c #EDA3A3",
"7. c #EEA3A3",
"8. c #EFA4A4",
"9. c #EFA7A7",
"0. c #EEA5A5",
"q. c #EFA8A8",
"w. c #F0A7A7",
"e. c #F0A8A8",
"r. c #F1A8A8",
"t. c #F1A9A9",
"y. c #F2A9A9",
"u. c #F3AAAA",
"i. c #F4AAAA",
"p. c #F1A8A8",
"a. c #D1CECE",
"s. c #D2CECE",
"d. c #D3CFCF",
"f. c #E9DDDD",
/* pixels */
"                                                                                                                                ",
"                                                                                                                                ",
"                                                                                                                                ",
"                                                                                                                                ",
"                                                5 5 5 5 5 5 5 5 5 5 5 5 5 5                                                     ",
"                                                9 q r y y y y y y y y y y r                                                     ",
"                                            5 9 p b G ( ( ( ( ( ( ( ( _ _ F r 5                                                 ",
"                                            9 t V K ,.e.e.6.X._ [ [ [ [ | U z r                                                 ",
"                                        5 9 p V R ,.6.e.i.X.v y u u u u u c U F r 5                                             ",
"                                        9 t V K ,.e.e.3.X.m 7 , , , , , , 8 M Y c r                                             ",
"                                    5 9 p V R ,.6.e.e.X.n 7 = $ $ $ $ $ $ - 8 c Y F r 5                                         ",
"                                    5 9 h H *.e.8.3. .m 7 ; # o o o X X o # ; 8 M U z r                                         ",
"                                    5 9 h H *.e.e. .v 7 = # O o o X . . X O # - 8 c U F r 5                                     ",
"                                    9 e h H %.e.e.( y , $ o o o o o . . o o X # , u | _ y 5                                     ",
"                                5 9 p j N H %.e.e.( y , $ o X o o o o o o o X # , u [ _ y 5                                     ",
"                                5 q h C C D W ,.8.( u , $ # : < % o o o o # * 2 4 u _ ( y 5                                     ",
"                                5 q h C C C D K ,._ u , # < L P < o o o o < L I k r ( ( y 5                                     ",
"                                5 q h B j h N H *._ u , # 6 s.s.6 X o o X 6 s.f.l r ( _ y 5                                     ",
"                                5 q h j e e g H *._ u , # 6 s.s.6 X o o X 6 s.f.l r ( _ y 5                                     ",
"                                5 q h h 0 9 h H ,.[ y , # * L P < o o o o < L I k r Y Y r 5                                     ",
"                                5 q h h 0 9 h H ,.[ y , # + * < % o o o o # * 2 4 w V b w 5                                     ",
"                                5 0 a p 9 9 h D #.~ v 7 - # o X o o o o o o X # , w h h q 5                                     ",
"                                    0 9 7 0 h S D J ~ M 8 ; @ X o o . . o o X # , q h h q 5                                     ",
"                                    5 5 5 0 p j N D @.T d 5 = # O X . . X O # = 5 e a p 0 5                                     ",
"                                            9 e j S D D V i 5 ; # X X X X # ; 5 p f e 9                                         ",
"                                            5 9 p h h j B N p 5 = $ $ $ $ = 5 e f a 9 5                                         ",
"                                                9 9 9 e j C N i 5 , , , , 5 i a e 9                                             ",
"                                                9 9 9 e h S D Z x y y y y x A V t 9                                             ",
"                                            5 9 p h h g N D #.&.| ( ( ( ( | &.W V p 9 5                                         ",
"                                            9 t V H H H H K ,.e.e.w.w.w.e.e.e.,.K V t 9                                         ",
"                                        5 9 p V R *.*.%.%.,.6.8.w.w.w.w.e.e.8.6.,.R V p 9 5                                     ",
"                                        5 0 h H *.e.q.8.8.8.8.8.8.8.8.8.8.8.8.8.q.*.H h 0 5                                     ",
"                                        5 0 h H %.q.8.8.8.8.8.8.8.8.8.8.8.8.8.8.8.%.H h 0 5                                     ",
"                                        5 q b K ,.8.8.8.8.8.8.8.8.8.8.8.8.8.8.8.8.,.K b q 5                                     ",
"                                        5 r G ,.6.8.8.8.8.8.8.8.8.8.8.8.8.8.8.8.8.6.,.G r 5                                     ",
"                                        9 s _ e.e.8.8.8.8.8.8.8.8.8.8.8.8.8.8.8.8.w.e.( y 5                                     ",
"                                    5 9 p Z &.e.8.8.8.8.8.8.8.8.8.8.8.8.8.8.8.8.8.w.e.( r 5                                     ",
"                                    5 0 h H %.8.8.8.8.8.8.8.8.8.8.6.;.;.6.8.8.8.8.8.e._ s 9                                     ",
"                                    5 0 h H %.8.8.8.8.8.8.8.8.8.8.;.K K ;.8.8.8.8.8.q.&.Z p 9 5                                 ",
"                                    5 0 h H %.8.8.8.8.8.8.8.8.8.8.%.D D %.8.8.8.8.8.8.*.H h 0 5                                 ",
"                                    5 0 h H %.8.8.8.8.8.8.8.8.8.q.%.D D %.q.8.8.8.8.q.*.H h 0 5                                 ",
"                                    5 9 h H %.8.8.8.8.8.8.8.8.8.,.R V V R ,.6.8.8.6.,.#.D h 0 5                                 ",
"                                    5 9 h H *.e.8.8.8.8.8.8.q.,.K V t t V K ,.e.8.,.K D C h 0 5                                 ",
"                                    9 e h D #.,.6.6.;.;.6.8.,.#.D h 9 9 h D O.,.8.%.H B B h q 5                                 ",
"                                5 9 p j N C D K ,.,.K K ,.,.K D S h 0 0 h S D K <.%.H B B h q 5                                 ",
"                                5 q h C C B B D ] #.J J #.#.D B j i 5 5 i j N D #.#.D C C h q 5                                 ",
"                                5 q h C C C B C D J #.#.J D C j p 5 = = 5 e j C D D C C C h q 5                                 ",
"                                5 q h B j h N B B D #.#.D N j i 5 ; # $ , q h C C N h j B h q 5                                 ",
"                                5 q h N e e j C C C D D C j e 5 = # o $ 3 w j S C h e e j h q 5                                 ",
"                                5 0 a p 9 9 h B j h N C C h q , $ o o # ; 5 i j C j e w a a 0 5                                 ",
"                                    9 9 7 q h j e e j C S h w , $ o o O # = 5 e j C j a w 9                                     ",
"                                    5 5 5 9 p a 9 9 a h h a 9 3 & o o o o $ , 0 p h h a 9 5                                     ",
"                                        7 7 9 9     q w w 9 7 5         o $ 3 9 9 q q 0                                         ",
"                                        7 7 5 5     , , , 3 5 7         o $ > 3 5 5 5 5                                         ",
"                                                    $ $ $ &                 $ &                                                 ",
"                                                    o o o o                 o o                                                 ",
"                                                        o o                 o o                                                 ",
"                                                        o o                 o o                                                 ",
"                                                        o o                 o o                                                 ",
"                                                        o o                 o o                                                 ",
"                                                                                                                                ",
"                                                                                                                                ",
"                                                                                                                                ",
"                                                                                                                                ",
};
