/* XPM */
static char *_135f8d7d2d94b18db803725050ef7406PPTlGB1MOUNuEws[] = {
/* columns rows colors chars-per-pixel */
"64 64 57 1 ",
"  c #9A2D2D",
". c #794040",
"X c #7C3E3E",
"o c #873838",
"O c #982E2E",
"+ c #7D3E3E",
"@ c #962F2F",
"# c #803C3C",
"$ c #8B3535",
"% c #933131",
"& c #7F3C3C",
"* c #7E3D3D",
"= c #992E2E",
"- c #843A3A",
"; c #863939",
": c #813B3B",
"> c #943030",
", c #913232",
"< c #992D2D",
"1 c #953030",
"2 c #972F2F",
"3 c #8D3535",
"4 c #823B3B",
"5 c #943131",
"6 c #8E3434",
"7 c #853939",
"8 c #8D3434",
"9 c #8A3636",
"0 c #8B3636",
"q c #893737",
"w c #903333",
"e c #923131",
"r c #7B3F3F",
"t c #923232",
"y c #8F3333",
"u c #8C3535",
"i c #833A3A",
"p c #7A3F3F",
"a c #843939",
"s c #7F3D3D",
"d c #7E3E3E",
"f c #7D3D3D",
"g c #7B3E3E",
"h c #873939",
"j c #833B3B",
"k c #7A4040",
"l c #813C3C",
"z c #972E2E",
"x c #883737",
"c c #883838",
"v c #823A3A",
"b c #7C3F3F",
"n c #8F3434",
"m c #963030",
"M c #903232",
"N c #863838",
"B c #893636",
/* pixels */
"                      .Xo                      O.+@             ",
"                      .+#                      $.X%             ",
"                      .&*=                     -.-@             ",
"                    @;.:X>                     ,.<              ",
"                    %X.-X,                     1.               ",
"                    2+.345                     -.2              ",
"                     #.12<                     -.6              ",
"                     7.8                       9.o              ",
"                     3.7                       8.7              ",
"                     @.:O                      0.o              ",
"                      .X,                      q.w              ",
"                      .Xe                      4.=              ",
"                     e.*<                     =*.               ",
"                     -.rt                    =yX.uO      =2<    ",
"  w-44iu<=t33uu8>   ,r.r*w          <2@2<    5*p.r:-ia77w,**s:w ",
"................................................................",
"sssddXrr.XX+frgX+&#hj+f+++++f++++sy >#rkp..+:@   <1$#*+X+XX-O2q,",
"       s.;          OO<      =211@=     e.&52           O>e@  O=",
"       e.l                               .X5                    ",
"       O.#                               .fy                    ",
"       z.;                               .r9                    ",
"       8.2                              1.px                    ",
"       2.                                .r7                    ",
"        .                                .Xo                    ",
"        .                                .x>                    ",
"       O.                                .@                     ",
"       q.=                              9.7                     ",
"       #.,                              -.:                     ",
"       #.:2                             c.9                     ",
"       v.ri1            ,w=             ;.#2                 =>%",
"  yu0ox*.:riO         =qX:O             x.r$            13q;4*rr",
"................................................................",
"................................................................",
"                 =#X.rs5                           <ip.kf0=     ",
"                  9r.#,                             tX.x@       ",
"                  @+.:                               4.%        ",
"                   4.l                               w.1        ",
"                   q.7                               u.         ",
"                   o.0                               s.         ",
"                   4.3                               *.         ",
"                   j.8                               *.         ",
"                   7.6                               &.=        ",
"                   7.6                               l.1        ",
"                   #.y                               4.,        ",
"                   s.1                               a.,        ",
"                   :.%                              @c.1        ",
"     e6            9.t                              0r.&oO      ",
"#l-c$y,@      u#-#&b.&:-h7qw@      2q7i4ji;q08yyn800y0.kpt O@<  ",
"................................................................",
"m;i.:#:::l##::l#i7o3zMN:#+Xrppp+*XXXp.ppXB3qo7a-7-bpx      ,i##9",
" =0.+4                             2*.4wq3       9XN=           ",
" O&.pN                              9.s          1,O            ",
"  4..x                               .-                         ",
"  q..y                               .l                         ",
"  t.p@                               .4                         ",
"  =.b2                               .:                         ",
"   .*O                              6.4                         ",
"   .q<                              -.i                         ",
"   .                                *.v                         ",
"   .                                :.&                         ",
"   .                                #.i                         ",
"   .                                :.&                         ",
"  >.4,                               .*                         ",
"wwu.rXoO                            s.#                         "
};
